<svg width="6" height="8" viewBox="0 0 6 8" fill="none" xmlns="http://www.w3.org/2000/svg">
<path d="M0.379828 8V7.196C1.09183 6.508 1.70383 5.896 2.21583 5.36C2.73583 4.816 3.13583 4.324 3.41583 3.884C3.69583 3.436 3.83583 3.02 3.83583 2.636C3.83583 2.236 3.72783 1.916 3.51183 1.676C3.29583 1.436 2.98383 1.316 2.57583 1.316C2.27983 1.316 2.00783 1.4 1.75983 1.568C1.51983 1.736 1.29583 1.936 1.08783 2.168L0.319828 1.4C0.671828 1.024 1.03583 0.736 1.41183 0.536C1.78783 0.328 2.23583 0.224 2.75583 0.224C3.49183 0.224 4.07583 0.436 4.50783 0.86C4.94783 1.284 5.16783 1.852 5.16783 2.564C5.16783 3.012 5.03983 3.472 4.78383 3.944C4.53583 4.408 4.19983 4.884 3.77583 5.372C3.35983 5.86 2.89983 6.372 2.39583 6.908C2.59583 6.892 2.81183 6.876 3.04383 6.86C3.27583 6.836 3.48383 6.824 3.66783 6.824H5.53983V8H0.379828Z" fill="white"/>
</svg>
