<svg width="6" height="4" viewBox="0 0 6 4" fill="none" xmlns="http://www.w3.org/2000/svg">
<path d="M3.23412 3.89139L5.90415 0.861476C5.96595 0.791398 6 0.697849 6 0.598101C6 0.498353 5.96595 0.404805 5.90415 0.334726L5.70756 0.111594C5.57947 -0.0335999 5.37127 -0.0335999 5.24337 0.111594L3.00124 2.65589L0.756628 0.108771C0.694824 0.0386923 0.612434 -2.35498e-07 0.524581 -2.39338e-07C0.436631 -2.43183e-07 0.354241 0.0386923 0.292388 0.108771L0.0958527 0.331903C0.0340483 0.402037 1.88966e-08 0.49553 1.45365e-08 0.595278C1.01764e-08 0.695026 0.0340483 0.788575 0.0958527 0.858653L2.76832 3.89139C2.83032 3.96164 2.9131 4.00022 3.0011 4C3.08944 4.00022 3.17217 3.96164 3.23412 3.89139Z" fill="black"/>
</svg>
